<?xml version="1.0" encoding="UTF-8"?>
<!-- Generator: Adobe Illustrator 27.8.1, SVG Export Plug-In . SVG Version: 6.00 Build 0)  -->
<svg version="1.1" id="Lager_1" xmlns="http://www.w3.org/2000/svg" xmlns:xlink="http://www.w3.org/1999/xlink" x="0px" y="0px" viewBox="0 0 164 71" style="enable-background:new 0 0 164 71;" xml:space="preserve">
<style type="text/css">
	.st0{display:none;}
	.st1{display:inline;fill:#FFCC00;}
	.st2{display:inline;}
	.st3{fill:#FFCC02;}
	.st4{display:inline;fill:#FFCC02;}
	.st5{fill:#FFCC00;}
</style>
<g class="st0">
	<path class="st1" d="M19,18.9h16.3v4.2H23.7v4.4h10.2v4.2H23.7v4.5h11.7v4.2H19C19,40.5,19,18.9,19,18.9z"/>
	<path class="st1" d="M36.9,32.4L36.9,32.4c0-4.8,3.6-8.7,8.7-8.7c3.1,0,5.1,1,6.6,2.8l-2.9,3.1c-1-1.1-2.1-1.8-3.8-1.8   c-2.3,0-4,2.1-4,4.5v0.1c0,2.5,1.6,4.6,4.2,4.6c1.6,0,2.7-0.7,3.8-1.8l2.7,2.8c-1.6,1.8-3.5,3-6.8,3C40.5,40.9,36.9,37.1,36.9,32.4   z"/>
	<path class="st1" d="M52.8,32.4L52.8,32.4c0-4.8,3.8-8.7,9-8.7c5.1,0,8.9,3.8,8.9,8.6v0.1c0,4.8-3.8,8.6-9,8.6   C56.6,40.9,52.8,37.1,52.8,32.4z M66.1,32.4L66.1,32.4c0-2.5-1.8-4.7-4.4-4.7c-2.7,0-4.3,2.1-4.3,4.5v0.1c0,2.4,1.8,4.6,4.4,4.6   C64.5,36.9,66.1,34.8,66.1,32.4z"/>
	<path class="st1" d="M72.9,24h4.7v2.4c1.1-1.5,2.7-2.7,5.2-2.7c3.9,0,7.5,3,7.5,8.6v0.1c0,5.5-3.6,8.6-7.5,8.6   c-2.5,0-4-1.1-5.2-2.5v7.1h-4.7V24z M85.6,32.3L85.6,32.3c0-2.8-1.9-4.7-4-4.7s-4,1.8-4,4.6v0.1c0,2.7,1.8,4.6,4,4.6   C83.7,36.9,85.6,35.1,85.6,32.3z"/>
	<path class="st1" d="M92.5,18.9h4.7v7.5c1.1-1.4,2.5-2.7,4.9-2.7c3.6,0,5.6,2.3,5.6,6.1v10.7H103v-9.2c0-2.2-1-3.4-2.8-3.4   s-2.9,1.1-2.9,3.4v9.2h-4.7L92.5,18.9L92.5,18.9z"/>
	<path class="st1" d="M109.7,32.4L109.7,32.4c0-4.8,3.8-8.7,9-8.7c5.1,0,8.9,3.8,8.9,8.6v0.1c0,4.8-3.8,8.6-9,8.6   C113.5,40.9,109.7,37.1,109.7,32.4z M123,32.4L123,32.4c0-2.5-1.8-4.7-4.4-4.7c-2.7,0-4.3,2.1-4.3,4.5v0.1c0,2.4,1.8,4.6,4.4,4.6   C121.4,36.9,123,34.8,123,32.4z"/>
	<path class="st1" d="M129.8,24h4.7v2.3c1.1-1.4,2.5-2.7,4.9-2.7c3.6,0,5.6,2.3,5.6,6.1v10.7h-4.7v-9.2c0-2.2-1-3.4-2.8-3.4   s-2.9,1.1-2.9,3.4v9.2h-4.7L129.8,24L129.8,24z"/>
</g>
<g class="st0">
	<path class="st2" d="M89.2,49.6c-0.8-0.3-1.2-0.4-1.2-0.9c0-0.4,0.6-0.6,1-0.6s0.9,0.1,1.2,0.3c0.1,0,0.2,0.1,0.2,0   c0.1,0,0.1-0.1,0.2-0.2l0.1-0.3c0.1-0.1,0-0.3-0.1-0.4c-0.4-0.3-1-0.5-1.6-0.5c-1.2,0-2,0.6-2,1.5c0,1.2,1,1.4,1.8,1.7   s1.2,0.4,1.2,0.9s-0.6,0.7-1.1,0.7s-1.1-0.3-1.4-0.6c-0.1-0.1-0.2-0.1-0.3-0.1S87,51.2,87,51.2l-0.2,0.3c-0.1,0.1,0,0.3,0,0.4   c0.5,0.5,1.3,0.8,2,0.8c1.2,0,2-0.6,2-1.6C91,50.1,90,49.8,89.2,49.6"/>
	<path class="st2" d="M94.6,47.5c0-0.1-0.2-0.2-0.3-0.2H94c-0.1,0-0.2,0.1-0.3,0.2l-2.3,5c0,0.1,0,0.2,0,0.3s0.1,0.1,0.3,0.1H92   c0.1,0,0.2-0.1,0.3-0.2l0.6-1.3h2.6l0.6,1.3c0,0.1,0.2,0.2,0.3,0.2h0.3c0.1,0,0.2,0,0.3-0.1c0-0.1,0.1-0.2,0-0.3L94.6,47.5z    M93.3,50.6l0.9-1.9l0.9,1.9H93.3z"/>
	<path class="st2" d="M98.4,47.3h-0.3c-0.2,0-0.3,0.1-0.3,0.3v5c0,0.2,0.1,0.3,0.3,0.3h0.3c0.2,0,0.3-0.1,0.3-0.3v-5   C98.7,47.4,98.6,47.3,98.4,47.3"/>
	<path class="st2" d="M104.7,47.3h-0.3c-0.2,0-0.3,0.1-0.3,0.3v3.7l-2.8-3.8c0-0.1-0.1-0.1-0.2-0.1h-0.4c-0.2,0-0.3,0.1-0.3,0.3v5   c0,0.2,0.1,0.3,0.3,0.3h0.3c0.2,0,0.3-0.1,0.3-0.3V49l2.8,3.8c0,0.1,0.1,0.1,0.2,0.1h0.3c0.2,0,0.3-0.1,0.3-0.3v-5   C105,47.4,104.9,47.3,104.7,47.3"/>
	<path class="st2" d="M109.9,47.3h-3.7c-0.2,0-0.3,0.1-0.3,0.3v0.3c0,0.2,0.1,0.3,0.3,0.3h1.4v4.4c0,0.2,0.1,0.3,0.3,0.3h0.3   c0.2,0,0.3-0.1,0.3-0.3v-4.4h1.4c0.2,0,0.3-0.1,0.3-0.3v-0.3C110.2,47.4,110.1,47.3,109.9,47.3"/>
	<path class="st2" d="M112.1,50h-1.6c-0.2,0-0.3,0.1-0.3,0.3v0.3c0,0.2,0.1,0.3,0.3,0.3h1.6c0.2,0,0.3-0.1,0.3-0.3v-0.3   C112.4,50.2,112.3,50,112.1,50"/>
	<path class="st2" d="M118.3,49.9H118l0,0h-0.9c-0.2,0-0.3,0.1-0.3,0.3v0.3c0,0.2,0.1,0.3,0.3,0.3h0.6v0.9c-0.3,0.2-0.8,0.4-1.2,0.4   c-1.1,0-2-0.9-2-1.9c0-1.1,0.9-1.9,2-1.9c0.5,0,1,0.2,1.4,0.5c0.1,0,0.1,0.1,0.2,0.1s0.2,0,0.2-0.1l0.2-0.2c0.1-0.1,0.1-0.3,0-0.4   c-0.5-0.5-1.2-0.7-2-0.7c-1.6,0-2.9,1.3-2.9,2.8c0,1.6,1.3,2.8,2.9,2.8c0.7,0,1.4-0.3,2-0.7c0.1,0,0.1-0.1,0.1-0.2v-1.8   C118.6,50,118.5,49.9,118.3,49.9"/>
	<path class="st2" d="M122.6,47.3c-1.6,0-2.9,1.3-2.9,2.8c0,1.6,1.3,2.8,2.9,2.8s2.9-1.3,2.9-2.8C125.5,48.5,124.2,47.3,122.6,47.3    M122.6,52c-1.1,0-2-0.9-2-1.9c0-1.1,0.9-1.9,2-1.9s2,0.9,2,1.9C124.6,51.2,123.7,52,122.6,52"/>
	<path class="st2" d="M130.2,49.9c0.3-0.3,0.5-0.7,0.5-1.1c0-1-0.7-1.5-1.9-1.5h-2c-0.2,0-0.3,0.1-0.3,0.3v5c0,0.2,0.1,0.3,0.3,0.3   h2.1c1.3,0,2.1-0.6,2.1-1.7C130.9,50.7,130.7,50.2,130.2,49.9 M128.8,49.6h-1.4v-1.4h1.4c0.4,0,1,0.1,1,0.7   C129.8,49.3,129.5,49.6,128.8,49.6 M127.4,50.5h1.4c0.5,0,1.2,0.1,1.2,0.8s-0.7,0.8-1.2,0.8h-1.4V50.5z"/>
	<path class="st2" d="M134.6,47.5c0-0.1-0.2-0.2-0.3-0.2H134c-0.1,0-0.2,0.1-0.3,0.2l-2.3,5c0,0.1,0,0.2,0,0.3s0.1,0.1,0.3,0.1h0.3   c0.1,0,0.2-0.1,0.3-0.2l0.6-1.3h2.6l0.6,1.3c0,0.1,0.2,0.2,0.3,0.2h0.3c0.1,0,0.2,0,0.3-0.1c0-0.1,0.1-0.2,0-0.3L134.6,47.5z    M133.3,50.6l0.9-1.9l0.9,1.9H133.3z"/>
	<path class="st2" d="M138.4,47.3h-0.3c-0.2,0-0.3,0.1-0.3,0.3v5c0,0.2,0.1,0.3,0.3,0.3h0.3c0.2,0,0.3-0.1,0.3-0.3v-5   C138.7,47.4,138.6,47.3,138.4,47.3"/>
	<path class="st2" d="M144.7,47.3h-0.3c-0.2,0-0.3,0.1-0.3,0.3v3.7l-2.8-3.8c0-0.1-0.1-0.1-0.2-0.1h-0.3c-0.2,0-0.3,0.1-0.3,0.3v5   c0,0.2,0.1,0.3,0.3,0.3h0.3c0.2,0,0.3-0.1,0.3-0.3V49l2.8,3.8c0,0.1,0.1,0.1,0.2,0.1h0.3c0.2,0,0.3-0.1,0.3-0.3v-5   C145,47.4,144.8,47.3,144.7,47.3"/>
</g>
<g id="Gul" class="st0">
	<g class="st2">
		<path class="st3" d="M77.4,24c-4.1,0-7.6,3.2-7.6,7.5c0,4.2,3.3,7.5,7.6,7.5c4.3,0,7.6-3.3,7.6-7.5C85,27.2,81.5,24,77.4,24z     M77.4,36C75,36,73,34,73,31.6c0-2.6,2.1-4.4,4.4-4.4s4.4,1.8,4.4,4.4C81.8,34,79.8,36,77.4,36z"/>
		<path class="st3" d="M47.8,24c-4.4,0-7.6,3.3-7.6,7.5c0,4.7,3.8,7.5,8.3,7.5c2.9,0,4.6-0.9,5.7-1.7c0.4-0.3,0.5-0.9,0.1-1.3    l-1-0.9c-0.3-0.2-0.6-0.3-1-0.1c-0.1,0.1-1.7,1.1-3.8,1.1c-2.8,0-4.4-1.7-4.8-3.2h10.8c0.4,0,0.7-0.3,0.8-0.7c0-0.3,0-0.5,0-0.8    C55.3,27.2,51.9,24,47.8,24z M47.8,26.9c2.3,0,3.7,1.6,4.1,3.4h-8.2C44.1,28.3,45.5,26.9,47.8,26.9z"/>
		<path class="st3" d="M102.9,46.1c-0.6-0.2-0.9-0.3-0.9-0.7c0-0.3,0.4-0.4,0.8-0.4c0.3,0,0.7,0.1,0.9,0.3c0.1,0,0.1,0,0.2,0    s0.1-0.1,0.2-0.1l0.1-0.2c0.1-0.1,0-0.2-0.1-0.3c-0.3-0.2-0.8-0.4-1.3-0.4c-1,0-1.6,0.5-1.6,1.2c0,0.9,0.8,1.2,1.4,1.4    c0.7,0.2,1,0.3,1,0.7s-0.5,0.5-0.9,0.5s-0.9-0.2-1.2-0.5c-0.1-0.1-0.1-0.1-0.2-0.1s-0.1,0.1-0.2,0.1l-0.1,0.2    c-0.1,0.1,0,0.2,0,0.3c0.4,0.4,1,0.7,1.6,0.7c1,0,1.7-0.5,1.7-1.3C104.4,46.5,103.6,46.3,102.9,46.1"/>
		<path class="st3" d="M107.3,44.4c0-0.1-0.1-0.1-0.2-0.1h-0.3c-0.1,0-0.2,0.1-0.2,0.1l-1.8,4.1c0,0.1,0,0.2,0,0.2    c0,0.1,0.1,0.1,0.2,0.1h0.3c0.1,0,0.2-0.1,0.2-0.1l0.5-1h2.1l0.5,1c0,0.1,0.1,0.1,0.2,0.1h0.3c0.1,0,0.2,0,0.2-0.1s0-0.2,0-0.2    L107.3,44.4z M106.3,46.9l0.7-1.6l0.7,1.6H106.3z"/>
		<path class="st3" d="M110.4,44.2h-0.2c-0.1,0-0.2,0.1-0.2,0.2v4.1c0,0.1,0.1,0.2,0.2,0.2h0.2c0.1,0,0.2-0.1,0.2-0.2v-4.1    C110.6,44.3,110.5,44.2,110.4,44.2"/>
		<path class="st3" d="M115.4,44.2h-0.2c-0.1,0-0.2,0.1-0.2,0.2v3l-2.3-3.1c0-0.1-0.1-0.1-0.2-0.1h-0.3c-0.1,0-0.2,0.1-0.2,0.2v4.1    c0,0.1,0.1,0.2,0.2,0.2h0.2c0.1,0,0.2-0.1,0.2-0.2v-3l2.3,3.1c0,0.1,0.1,0.1,0.2,0.1h0.3c0.1,0,0.2-0.1,0.2-0.2v-4.1    C115.7,44.3,115.6,44.2,115.4,44.2"/>
		<path class="st3" d="M119.6,44.2h-3c-0.1,0-0.2,0.1-0.2,0.2v0.2c0,0.1,0.1,0.2,0.2,0.2h1.1v3.6c0,0.1,0.1,0.2,0.2,0.2h0.2    c0.1,0,0.2-0.1,0.2-0.2v-3.6h1.1c0.1,0,0.2-0.1,0.2-0.2v-0.2C119.9,44.3,119.8,44.2,119.6,44.2"/>
		<path class="st3" d="M121.4,46.4h-1.3c-0.1,0-0.2,0.1-0.2,0.2v0.2c0,0.1,0.1,0.2,0.2,0.2h1.3c0.1,0,0.2-0.1,0.2-0.2v-0.2    C121.7,46.5,121.6,46.4,121.4,46.4"/>
		<path class="st3" d="M126.5,46.3h-0.2l0,0h-0.7c-0.1,0-0.2,0.1-0.2,0.2v0.2c0,0.1,0.1,0.2,0.2,0.2h0.5v0.7c-0.3,0.2-0.6,0.3-1,0.3    c-0.9,0-1.6-0.7-1.6-1.6c0-0.9,0.7-1.6,1.6-1.6c0.4,0,0.8,0.2,1.1,0.4c0,0,0.1,0.1,0.2,0.1s0.1,0,0.2-0.1l0.1-0.2    c0.1-0.1,0.1-0.2,0-0.3c-0.4-0.4-1-0.6-1.6-0.6c-1.3,0-2.3,1-2.3,2.3s1.1,2.3,2.3,2.3c0.6,0,1.2-0.2,1.6-0.6    c0.1,0,0.1-0.1,0.1-0.2v-1.5C126.7,46.4,126.6,46.3,126.5,46.3"/>
		<path class="st3" d="M129.9,44.2c-1.3,0-2.3,1-2.3,2.3s1.1,2.3,2.3,2.3c1.3,0,2.3-1,2.3-2.3S131.2,44.2,129.9,44.2 M129.9,48    c-0.9,0-1.6-0.7-1.6-1.6c0-0.9,0.7-1.6,1.6-1.6c0.9,0,1.6,0.7,1.6,1.6C131.5,47.4,130.8,48,129.9,48"/>
		<path class="st3" d="M136.1,46.4c0.2-0.2,0.4-0.5,0.4-0.9c0-0.8-0.6-1.3-1.5-1.3h-1.7c-0.1,0-0.2,0.1-0.2,0.2v4.1    c0,0.1,0.1,0.2,0.2,0.2h1.7c1.1,0,1.7-0.5,1.7-1.3C136.7,47,136.5,46.6,136.1,46.4 M135,46.1h-1.2V45h1.2c0.4,0,0.8,0.1,0.8,0.6    C135.7,45.9,135.5,46.1,135,46.1 M133.8,46.8h1.2c0.4,0,1,0.1,1,0.6s-0.5,0.6-1,0.6h-1.2V46.8z"/>
		<path class="st3" d="M139.6,44.4c0-0.1-0.1-0.1-0.2-0.1h-0.3c-0.1,0-0.2,0.1-0.2,0.1l-1.8,4.1c0,0.1,0,0.2,0,0.2    c0,0.1,0.1,0.1,0.2,0.1h0.3c0.1,0,0.2-0.1,0.2-0.1l0.5-1h2.1l0.5,1c0,0.1,0.1,0.1,0.2,0.1h0.3c0.1,0,0.2,0,0.2-0.1s0-0.2,0-0.2    L139.6,44.4z M138.6,46.9l0.7-1.6l0.7,1.6H138.6z"/>
		<path class="st3" d="M142.7,44.2h-0.2c-0.1,0-0.2,0.1-0.2,0.2v4.1c0,0.1,0.1,0.2,0.2,0.2h0.2c0.1,0,0.2-0.1,0.2-0.2v-4.1    C142.9,44.3,142.8,44.2,142.7,44.2"/>
		<path class="st3" d="M147.8,44.2h-0.2c-0.1,0-0.2,0.1-0.2,0.2v3l-2.3-3.1c0-0.1-0.1-0.1-0.2-0.1h-0.3c-0.1,0-0.2,0.1-0.2,0.2v4.1    c0,0.1,0.1,0.2,0.2,0.2h0.2c0.1,0,0.2-0.1,0.2-0.2v-3l2.3,3.1c0,0.1,0.1,0.1,0.2,0.1h0.3c0.1,0,0.2-0.1,0.2-0.2v-4.1    C148,44.3,147.9,44.2,147.8,44.2"/>
		<path class="st3" d="M86.6,28.3v14c0,0.4,0.4,0.8,0.8,0.8h1.7c0.4,0,0.8-0.4,0.8-0.8v-4.5c1.8,1.1,3.1,1.3,4.4,1.3    c4.2,0,7.4-3.4,7.4-7.5c0-3.4-2.2-7.5-8-7.5c-2.4,0-5.4,1.2-6.7,3.3C86.8,27.6,86.6,27.9,86.6,28.3z M89.9,28.9    c0.8-1,2.1-1.8,4-1.8l0,0c2.5,0,4.5,2,4.5,4.5s-2,4.5-4.5,4.5c-2,0-3.4-1.2-4-2.2V28.9z"/>
		<path class="st3" d="M110.4,24c-1.7,0-2.9,0.6-3.8,1.3v-5.6c0-0.5-0.4-0.8-0.8-0.8h-1.5c-0.5,0-0.8,0.4-0.8,0.8v18.2    c0,0.5,0.4,0.8,0.8,0.8h1.6c0.5,0,0.8-0.4,0.8-0.8v-9.2c0.9-1.1,2-1.6,3.2-1.6c2.9,0,3.2,2.4,3.2,4.3v6.5c0,0.5,0.4,0.8,0.8,0.8    h1.6c0.5,0,0.8-0.4,0.8-0.8v-7C116.4,25.9,113.6,24,110.4,24z"/>
		<path class="st3" d="M125.6,24c-4.1,0-7.7,3.2-7.7,7.5c0,4.2,3.3,7.5,7.7,7.5c4.4,0,7.7-3.3,7.7-7.5C133.2,27.2,129.7,24,125.6,24    z M125.6,36c-2.4,0-4.4-2-4.4-4.4c0-2.6,2.1-4.4,4.4-4.4s4.4,1.8,4.4,4.4C130,34,128,36,125.6,36z"/>
		<path class="st3" d="M69.4,36l-1.1-1.2c-0.3-0.3-0.7-0.3-1.1-0.1c-0.1,0-0.4,0.3-0.6,0.4c-0.3,0.2-1.2,0.7-2.4,0.7    c-2.3,0-4.6-1.9-4.6-4.3s1.9-4.3,4.3-4.3c1.3,0,2.2,0.5,2.9,1.1c0.3,0.3,0.8,0.3,1.1,0l1.1-1.2c0.3-0.3,0.3-0.8,0-1.2    c-0.8-0.7-2.4-1.9-5-1.9c-4.3,0-7.6,3.4-7.6,7.5c0,4.3,3.7,7.5,7.8,7.5c2.9,0,4.5-1.5,5.1-1.9C69.7,36.9,69.7,36.3,69.4,36z"/>
		<path class="st3" d="M141.6,24.1c-4.1,0-6.5,2.2-6.5,6.3V38c0,0.5,0.4,0.8,0.8,0.8h1.6c0.5,0,0.8-0.4,0.8-0.8v-7.5    c0-2.3,1.4-3.3,3.2-3.3s3.2,1,3.2,3.3V38c0,0.5,0.4,0.8,0.8,0.8h1.6c0.5,0,0.8-0.4,0.8-0.8v-7.6C148,26.6,145.7,24.1,141.6,24.1z"/>
	</g>
	<path class="st4" d="M35.3,31.7c0-2.2,0.5-4.2,1.5-6c0.2-0.5-0.1-1-0.6-1h-6.6c0.2-1.7,0.7-3.3,1.5-4.7c0.2-0.5-0.1-1-0.6-1H19.9   c-0.5,0-1,0.3-1.2,0.7c-1.1,1.9-1.7,4-1.7,6.4s0.6,4.5,1.7,6.4c0.3,0.4,0.7,0.7,1.2,0.7h2.9c0.2,1.8,0.8,3.5,1.6,5   c0.3,0.4,0.7,0.7,1.2,0.7h10.5c0.5,0,0.8-0.6,0.6-1C35.8,35.9,35.3,33.9,35.3,31.7z M25.7,37.8c-0.2,0-0.3-0.1-0.4-0.2   c-0.8-1.4-1.3-3-1.5-4.6h6.7c0.5,0,0.8-0.6,0.6-1c-1-1.8-1.5-3.9-1.5-6c0-0.1,0-0.3,0-0.4h6.2c-1,1.9-1.5,4-1.5,6.1   s0.5,4.2,1.5,6.1H25.7z"/>
</g>
<g id="Original">
	<g>
		<path class="st5" d="M75.6,25.3c-5.1,0-9.5,4-9.5,9.4c0,5.3,4.1,9.4,9.5,9.4s9.5-4.1,9.5-9.4C85.1,29.3,80.7,25.3,75.6,25.3z     M75.6,40.3c-3,0-5.5-2.5-5.5-5.5c0-3.3,2.6-5.5,5.5-5.5s5.5,2.3,5.5,5.5C81.1,37.8,78.6,40.3,75.6,40.3z"/>
		<path class="st5" d="M38.6,25.3c-5.5,0-9.5,4.1-9.5,9.4c0,5.9,4.8,9.4,10.4,9.4c3.6,0,5.8-1.1,7.1-2.1c0.5-0.4,0.6-1.1,0.1-1.6    l-1.3-1.1c-0.4-0.3-0.8-0.4-1.3-0.1c-0.1,0.1-2.1,1.4-4.8,1.4c-3.5,0-5.5-2.1-6-4h13.5c0.5,0,0.9-0.4,1-0.9c0-0.4,0-0.6,0-1    C47.9,29.3,43.7,25.3,38.6,25.3z M38.6,28.9c2.9,0,4.6,2,5.1,4.3H33.4C33.9,30.7,35.7,28.9,38.6,28.9z"/>
		<path d="M107.5,53c-0.8-0.3-1.1-0.4-1.1-0.9c0-0.4,0.5-0.5,1-0.5c0.4,0,0.9,0.1,1.1,0.4c0.1,0,0.1,0,0.3,0c0.1,0,0.1-0.1,0.3-0.1    l0.1-0.3c0.1-0.1,0-0.3-0.1-0.4c-0.4-0.3-1-0.5-1.6-0.5c-1.3,0-2,0.6-2,1.5c0,1.1,1,1.5,1.8,1.8c0.9,0.3,1.3,0.4,1.3,0.9    c0,0.5-0.6,0.6-1.1,0.6c-0.5,0-1.1-0.3-1.5-0.6c-0.1-0.1-0.1-0.1-0.3-0.1s-0.1,0.1-0.3,0.1l-0.1,0.3c-0.1,0.1,0,0.3,0,0.4    c0.5,0.5,1.3,0.9,2,0.9c1.3,0,2.1-0.6,2.1-1.6C109.4,53.5,108.4,53.2,107.5,53"/>
		<path d="M113,50.8c0-0.1-0.1-0.1-0.3-0.1h-0.4c-0.1,0-0.3,0.1-0.3,0.1l-2.3,5.1c0,0.1,0,0.3,0,0.3c0,0.1,0.1,0.1,0.3,0.1h0.4    c0.1,0,0.3-0.1,0.3-0.1l0.6-1.3h2.6l0.6,1.3c0,0.1,0.1,0.1,0.3,0.1h0.4c0.1,0,0.3,0,0.3-0.1c0-0.1,0-0.3,0-0.3L113,50.8z     M111.8,54l0.9-2l0.9,2H111.8z"/>
		<path d="M116.9,50.6h-0.3c-0.1,0-0.3,0.1-0.3,0.3V56c0,0.1,0.1,0.3,0.3,0.3h0.3c0.1,0,0.3-0.1,0.3-0.3v-5.1    C117.2,50.7,117.1,50.6,116.9,50.6"/>
		<path d="M123.2,50.6h-0.3c-0.1,0-0.3,0.1-0.3,0.3v3.8l-2.9-3.9c0-0.1-0.1-0.1-0.3-0.1h-0.4c-0.1,0-0.3,0.1-0.3,0.3V56    c0,0.1,0.1,0.3,0.3,0.3h0.3c0.1,0,0.3-0.1,0.3-0.3v-3.8l2.9,3.9c0,0.1,0.1,0.1,0.3,0.1h0.4c0.1,0,0.3-0.1,0.3-0.3v-5.1    C123.6,50.7,123.4,50.6,123.2,50.6"/>
		<path d="M128.4,50.6h-3.8c-0.1,0-0.3,0.1-0.3,0.3v0.3c0,0.1,0.1,0.3,0.3,0.3h1.4v4.5c0,0.1,0.1,0.3,0.3,0.3h0.3    c0.1,0,0.3-0.1,0.3-0.3v-4.5h1.4c0.1,0,0.3-0.1,0.3-0.3v-0.3C128.8,50.7,128.7,50.6,128.4,50.6"/>
		<path d="M130.7,53.3h-1.6c-0.1,0-0.3,0.1-0.3,0.3v0.3c0,0.1,0.1,0.3,0.3,0.3h1.6c0.1,0,0.3-0.1,0.3-0.3v-0.3    C131.1,53.5,130.9,53.3,130.7,53.3"/>
		<path d="M137.1,53.2h-0.3l0,0H136c-0.1,0-0.3,0.1-0.3,0.3v0.3c0,0.1,0.1,0.3,0.3,0.3h0.6v0.9c-0.4,0.3-0.8,0.4-1.3,0.4    c-1.1,0-2-0.9-2-2c0-1.1,0.9-2,2-2c0.5,0,1,0.3,1.4,0.5c0,0,0.1,0.1,0.3,0.1c0.1,0,0.1,0,0.3-0.1l0.1-0.3c0.1-0.1,0.1-0.3,0-0.4    c-0.5-0.5-1.3-0.8-2-0.8c-1.6,0-2.9,1.3-2.9,2.9s1.4,2.9,2.9,2.9c0.8,0,1.5-0.3,2-0.8c0.1,0,0.1-0.1,0.1-0.3v-1.9    C137.3,53.3,137.2,53.2,137.1,53.2"/>
		<path d="M141.3,50.6c-1.6,0-2.9,1.3-2.9,2.9s1.4,2.9,2.9,2.9c1.6,0,2.9-1.3,2.9-2.9S143,50.6,141.3,50.6 M141.3,55.3    c-1.1,0-2-0.9-2-2c0-1.1,0.9-2,2-2c1.1,0,2,0.9,2,2C143.3,54.6,142.5,55.3,141.3,55.3"/>
		<path d="M149.1,53.3c0.3-0.3,0.5-0.6,0.5-1.1c0-1-0.8-1.6-1.9-1.6h-2.1c-0.1,0-0.3,0.1-0.3,0.3V56c0,0.1,0.1,0.3,0.3,0.3h2.1    c1.4,0,2.1-0.6,2.1-1.6C149.9,54.1,149.6,53.6,149.1,53.3 M147.7,53h-1.5v-1.4h1.5c0.5,0,1,0.1,1,0.8    C148.6,52.7,148.4,53,147.7,53 M146.2,53.8h1.5c0.5,0,1.3,0.1,1.3,0.8c0,0.6-0.6,0.8-1.3,0.8h-1.5V53.8z"/>
		<path d="M153.5,50.8c0-0.1-0.1-0.1-0.3-0.1h-0.4c-0.1,0-0.3,0.1-0.3,0.1l-2.3,5.1c0,0.1,0,0.3,0,0.3c0,0.1,0.1,0.1,0.3,0.1h0.4    c0.1,0,0.3-0.1,0.3-0.1l0.6-1.3h2.6l0.6,1.3c0,0.1,0.1,0.1,0.3,0.1h0.4c0.1,0,0.3,0,0.3-0.1c0-0.1,0-0.3,0-0.3L153.5,50.8z     M152.2,54l0.9-2l0.9,2H152.2z"/>
		<path d="M157.4,50.6h-0.3c-0.1,0-0.3,0.1-0.3,0.3V56c0,0.1,0.1,0.3,0.3,0.3h0.3c0.1,0,0.3-0.1,0.3-0.3v-5.1    C157.6,50.7,157.5,50.6,157.4,50.6"/>
		<path d="M163.7,50.6h-0.3c-0.1,0-0.3,0.1-0.3,0.3v3.8l-2.9-3.9c0-0.1-0.1-0.1-0.3-0.1h-0.4c-0.1,0-0.3,0.1-0.3,0.3V56    c0,0.1,0.1,0.3,0.3,0.3h0.3c0.1,0,0.3-0.1,0.3-0.3v-3.8l2.9,3.9c0,0.1,0.1,0.1,0.3,0.1h0.4c0.1,0,0.3-0.1,0.3-0.3v-5.1    C164,50.7,163.9,50.6,163.7,50.6"/>
		<path class="st5" d="M87.1,30.7v17.5c0,0.5,0.5,1,1,1h2.1c0.5,0,1-0.5,1-1v-5.6c2.3,1.4,3.9,1.6,5.5,1.6c5.3,0,9.3-4.3,9.3-9.4    c0-4.3-2.8-9.4-10-9.4c-3,0-6.8,1.5-8.4,4.1C87.4,29.8,87.1,30.2,87.1,30.7z M91.3,31.4c1-1.3,2.6-2.3,5-2.3l0,0    c3.1,0,5.6,2.5,5.6,5.6s-2.5,5.6-5.6,5.6c-2.5,0-4.3-1.5-5-2.8V31.4z"/>
		<path class="st5" d="M116.9,25.3c-2.1,0-3.6,0.8-4.8,1.6v-7c0-0.6-0.5-1-1-1h-1.9c-0.6,0-1,0.5-1,1v22.8c0,0.6,0.5,1,1,1h2    c0.6,0,1-0.5,1-1V31.2c1.1-1.4,2.5-2,4-2c3.6,0,4,3,4,5.4v8.1c0,0.6,0.5,1,1,1h2c0.6,0,1-0.5,1-1v-8.8    C124.4,27.7,120.9,25.3,116.9,25.3z"/>
		<path class="st5" d="M136,25.3c-5.1,0-9.6,4-9.6,9.4c0,5.3,4.1,9.4,9.6,9.4c5.5,0,9.6-4.1,9.6-9.4C145.5,29.3,141.1,25.3,136,25.3    z M136,40.3c-3,0-5.5-2.5-5.5-5.5c0-3.3,2.6-5.5,5.5-5.5s5.5,2.3,5.5,5.5C141.5,37.8,139,40.3,136,40.3z"/>
		<path class="st5" d="M65.6,40.3l-1.4-1.5c-0.4-0.4-0.9-0.4-1.4-0.1c-0.1,0-0.5,0.4-0.8,0.5c-0.4,0.3-1.5,0.9-3,0.9    c-2.9,0-5.8-2.4-5.8-5.4s2.4-5.4,5.4-5.4c1.6,0,2.8,0.6,3.6,1.4c0.4,0.4,1,0.4,1.4,0l1.4-1.5c0.4-0.4,0.4-1,0-1.5    c-1-0.9-3-2.4-6.3-2.4c-5.4,0-9.5,4.3-9.5,9.4c0,5.4,4.6,9.4,9.8,9.4c3.6,0,5.6-1.9,6.4-2.4C66,41.4,66,40.7,65.6,40.3z"/>
		<path class="st5" d="M156,25.4c-5.1,0-8.1,2.8-8.1,7.9v9.5c0,0.6,0.5,1,1,1h2c0.6,0,1-0.5,1-1v-9.4c0-2.9,1.8-4.1,4-4.1    c2.3,0,4,1.3,4,4.1v9.4c0,0.6,0.5,1,1,1h2c0.6,0,1-0.5,1-1v-9.5C164,28.5,161.1,25.4,156,25.4z"/>
	</g>
	<path d="M22.9,34.9c0-2.8,0.6-5.3,1.9-7.5c0.3-0.6-0.1-1.3-0.8-1.3h-8.3c0,0.5-0.1,1.1-0.1,1.8c0,2.8,0.6,5.3,1.9,7.5   c0.3,0.6-0.1,1.3-0.8,1.3H7.1c0.3,2.3,1,4.4,2,6.3c0.4,0.5,0.9,0.9,1.5,0.9h13.1c0.6,0,1-0.8,0.8-1.3   C23.5,40.2,22.9,37.7,22.9,34.9z"/>
	<path class="st5" d="M16.9,18.9H3.6c-0.6,0-1.3,0.4-1.5,0.9c-1.4,2.4-2.1,5-2.1,8s0.8,5.6,2.1,8c0.4,0.5,0.9,0.9,1.5,0.9h13.1   c0.6,0,1-0.8,0.8-1.3c-1.3-2.3-1.9-4.9-1.9-7.5s0.6-5.3,1.9-7.5C17.9,19.5,17.5,18.9,16.9,18.9z"/>
</g>
</svg>